<svg xmlns="http://www.w3.org/2000/svg" width="500" height="500" class="icon" viewBox="0 0 1024 1024"><path d="M904.124 134.44c-9.345.364-18.569.485-27.55.485-236.536 0-340.908-100.246-341.758-101.095L511.272 9.92l-23.787 23.91c-.971 1.092-103.159 101.095-341.637 101.095-8.98 0-18.205-.121-27.55-.485l-33.253-1.092V587.73c0 118.936 42.963 292.485 414.576 425.256l11.65 4.127 11.652-4.127c371.613-132.77 414.576-306.32 414.576-425.256V133.348l-33.375 1.092M474.62 705.21L260.536 518.796l56.798-45.268 113.838 82.527S588.337 396.22 740.162 321.46l21.724 24.03S572.196 500.106 474.62 705.21m0 0"/></svg>