<svg class="icon" viewBox="0 0 1024 1024" xmlns="http://www.w3.org/2000/svg" width="200" height="200"><path d="M704 1011.2c-83.2 0-153.6-32-211.2-89.6-57.6-57.6-89.6-134.4-89.6-217.6 0-83.2 32-160 89.6-217.6 57.6-57.6 134.4-89.6 217.6-89.6 83.2 0 160 32 217.6 89.6 57.6 57.6 89.6 134.4 89.6 217.6 0 83.2-32 160-89.6 217.6-64 57.6-140.8 89.6-224 89.6zm0-512c-57.6 0-108.8 25.6-147.2 64-38.4 38.4-57.6 89.6-57.6 140.8 0 57.6 25.6 108.8 64 147.2 38.4 38.4 89.6 57.6 147.2 57.6 57.6 0 108.8-25.6 147.2-64 38.4-38.4 57.6-89.6 57.6-147.2 0-57.6-25.6-108.8-64-147.2-44.8-32-96-51.2-147.2-51.2z"/><path d="M768 819.2c-12.8 0-25.6-6.4-38.4-12.8L672 748.8c-12.8-12.8-19.2-32-19.2-44.8V588.8c0-25.6 19.2-51.2 51.2-51.2s51.2 19.2 51.2 51.2v96l51.2 51.2c19.2 19.2 19.2 51.2 0 70.4-12.8 6.4-25.6 12.8-38.4 12.8zm-12.8-121.6zM742.4 672z"/><path d="M326.4 947.2H96c-44.8 0-83.2-38.4-83.2-83.2V224c0-44.8 38.4-83.2 83.2-83.2h768c44.8 0 83.2 38.4 83.2 83.2v121.6c0 25.6-25.6 51.2-51.2 51.2s-51.2-25.6-51.2-51.2V243.2H115.2v601.6h211.2c25.6 0 51.2 25.6 51.2 51.2s-25.6 51.2-51.2 51.2z"/><path d="M249.6 243.2c-25.6 0-51.2-25.6-51.2-51.2V64c0-25.6 25.6-51.2 51.2-51.2s51.2 25.6 51.2 51.2v128c0 25.6-25.6 51.2-51.2 51.2zm460.8 0c-25.6 0-51.2-25.6-51.2-51.2V64c0-25.6 25.6-51.2 51.2-51.2s51.2 25.6 51.2 51.2v128c0 25.6-25.6 51.2-51.2 51.2zm-428.8 320h-32c-25.6 0-51.2-25.6-51.2-51.2s25.6-51.2 51.2-51.2h32c25.6 0 51.2 25.6 51.2 51.2s-25.6 51.2-51.2 51.2zm0 192h-32c-25.6 0-51.2-25.6-51.2-51.2s25.6-51.2 51.2-51.2h32c25.6 0 51.2 25.6 51.2 51.2s-25.6 51.2-51.2 51.2zm614.4-384H64c-25.6 0-51.2-25.6-51.2-51.2s25.6-51.2 51.2-51.2h832c25.6 0 51.2 25.6 51.2 51.2s-25.6 51.2-51.2 51.2z"/></svg>