<svg class="icon" viewBox="0 0 1024 1024" xmlns="http://www.w3.org/2000/svg" width="200" height="200"><path d="M895.84 800.425c0 18.803-15.243 34.048-34.048 34.048H231.87c-18.81 0-34.054-15.246-34.054-34.048l65.974-420.592c0-18.809 15.243-34.054 34.048-34.054h629.923c18.805 0 34.049 15.246 34.049 34.054l-65.97 420.592zm-77.569-474.82H280.814c-10.64 1.062-34.049 10.64-39.37 44.689L169.09 834.515s-32.987-9.424-37.241-41.344c-4.257-31.923-65.974-556.87-65.974-556.87s-10.64-46.816 29.797-46.816h276.65c29.795 0 44.692 46.817 44.692 46.817s10.642 31.897 31.925 31.897H820.4c53.205 0 53.205 57.406-2.13 57.406z"/></svg>