<svg class="icon" viewBox="0 0 1024 1024" xmlns="http://www.w3.org/2000/svg" width="200" height="200"><path d="M558.37 63.463l330.798 105.329a50.945 50.945 0 0 1 35.489 48.546v442.577c-43.997 67.808-103.338 130.506-178.018 188.1C671.953 905.613 593.742 948.988 512 978.149c-116.843-50.787-199.492-94.86-247.95-132.228-48.45-37.369-103.353-99.369-164.707-186.006V217.333a50.945 50.945 0 0 1 35.489-48.546L465.63 63.457a152.836 152.836 0 0 1 92.74 0zm-7.081 198.09c-44.873-16.404-100.851-1.411-131.322 35.55-17.601 21.376-27.52 45.356-29.879 72.867-2.012 24.092 4.605 49.84 17.123 70.39 12.048 19.717 30.119 37.084 51.25 46.769 6.267 2.822 12.523 5.069 18.779 6.964 0 .596-.117 1.182-.117 1.885v210.22a34.276 34.276 0 0 0 34.245 34.25 34.276 34.276 0 0 0 34.25-34.25v-81.492h57.875a34.286 34.286 0 0 0 34.255-34.245h-.117v-1.416a34.276 34.276 0 0 0-34.25-34.246h-57.874v-60.12c51.026-13.587 86.928-62.831 88.578-115.035.123-.82.123-1.65.123-2.476.117-.713 0-1.304 0-2.007-.597-23.506-7.566-47.476-21.265-66.728-15.59-21.958-36.258-37.552-61.654-46.885z"/></svg>