<svg class="icon" viewBox="0 0 1109 1024" xmlns="http://www.w3.org/2000/svg" width="216.602" height="200"><path d="M1066.667 597.333l-138.624 69.12 49.024 147.2L856.363 934.4 709.29 885.333 640 1024H469.333L400 885.333 252.928 934.4 132.267 813.653l49.024-147.2-138.624-69.12V426.667l138.624-69.12-49.024-147.2L252.928 89.6 400 138.667 469.333 0H640l69.333 138.667L856.405 89.6 977.11 210.347l-49.024 147.2 138.582 69.12v170.666zm-512-256A170.667 170.667 0 1 0 725.333 512a170.667 170.667 0 0 0-170.666-170.667z"/></svg>