<svg class="icon" viewBox="0 0 1024 1024" xmlns="http://www.w3.org/2000/svg" width="200" height="200"><path d="M493.739 858.155h-282.24V326.229h437.376v244.438h65.834V304.725c0-23.466-18.901-42.368-42.368-43.05H562.176v-93.867h233.387v402.859l65.834-1.28V144.299c0-23.467-18.901-43.008-43.008-43.008H536.107c-23.467 0-42.368 19.541-42.368 43.008V262.4H188.672c-23.467 0-42.368 19.541-42.368 43.008v553.387h-13.013a32 32 0 0 0 0 63.914h361.13a32.256 32.256 0 0 0-.64-64.554zm-18.859-483.03h89.301v63.872H474.88v-63.872zM290.432 487.893h89.301v63.872H290.39v-63.872zm185.77 0h89.302v63.872H476.16v-63.872zm0 117.334h89.302v63.872H476.16v-63.872zm0 115.37h89.302v63.872H476.16V720.64zM290.39 375.125h89.302v63.872h-89.302v-63.872zm0 346.112h89.302v63.872h-89.302v-63.872zm0-112.768h89.302v63.872h-89.302V608.47zm453.035 167.552a29.355 29.355 0 0 0 58.667 0 29.355 29.355 0 0 0-58.667 0zm172.075-31.317l-23.467-3.883a8.96 8.96 0 0 1-6.528-5.248c-.64-1.962-1.963-4.565-2.56-6.485-1.323-2.645-.683-5.888.597-8.533l13.696-19.499c2.603-3.285 1.963-8.49-.64-11.733l-31.957-31.958c-3.243-3.242-7.808-3.242-11.733-1.28l-19.542 13.654c-1.28 1.28-3.242 1.28-5.205 1.28-1.28 0-2.603 0-3.925-.598-1.963-.682-4.566-1.962-6.528-2.645-2.56-1.28-5.206-3.243-5.206-6.485l-3.925-23.467a9.13 9.13 0 0 0-9.088-7.85h-45.653c-4.566 0-7.808 3.285-9.131 7.167l-3.883 23.467a8.96 8.96 0 0 1-5.248 6.528c-1.962.64-4.565 1.963-6.485 2.603-1.323.682-2.645.682-3.925.682a12.288 12.288 0 0 1-5.206-1.322l-19.584-13.654c-3.242-2.645-8.448-2.005-11.733 1.28L656.043 688c-3.243 3.243-3.243 7.808-1.28 11.733l13.653 19.542a8.021 8.021 0 0 1 .683 8.49c-.64 1.963-1.963 4.566-2.603 6.528-1.28 2.56-3.285 5.206-6.528 5.206l-23.467 3.925a9.13 9.13 0 0 0-7.808 9.13v45.611c0 4.566 3.243 7.808 7.168 9.131l23.467 3.925a8.96 8.96 0 0 1 6.528 5.206c.64 1.962 1.92 4.565 2.56 6.528 1.323 2.56.683 5.845-.64 8.448l-13.653 19.541c-2.646 3.285-1.963 8.533 1.28 11.733l31.957 32c3.243 3.2 7.808 3.2 11.733.598l19.542-13.654c1.28-1.322 3.242-1.322 5.205-1.322 1.28 0 2.603 0 3.925.64 1.963.682 4.566 1.962 6.528 2.602 2.56 1.28 5.206 3.286 5.206 6.528l3.925 23.467a9.13 9.13 0 0 0 9.13 7.808h45.611c4.566 0 7.808-3.243 9.131-7.168l3.925-23.467a8.96 8.96 0 0 1 5.206-6.485c1.962-.683 4.565-1.963 6.528-2.603 1.28-.682 2.56-.682 3.882-.682 1.963 0 3.926.682 5.206 1.28l19.584 13.738c3.242 2.56 8.448 1.92 11.733-.682l31.915-31.915c3.285-3.285 3.285-7.85.682-11.733l-13.696-19.584a8.021 8.021 0 0 1-.64-8.448c.64-1.963 1.92-4.566 2.56-6.528 1.323-2.603 3.286-5.206 6.528-5.206l23.467-3.925a9.13 9.13 0 0 0 7.85-9.13v-45.654c.64-4.523-2.602-7.808-6.527-8.448zm-67.158 58.667a31.787 31.787 0 0 0-1.92 4.565c-5.248 12.373-5.888 26.07-.682 38.485a46.592 46.592 0 0 0-38.443.64l-4.565 1.963c-12.374 4.565-22.187 14.336-27.392 26.71a48 48 0 0 0-27.35-26.71l-4.565-1.963a49.237 49.237 0 0 0-38.485-.64c5.205-12.373 5.205-26.112-.64-38.485a31.787 31.787 0 0 1-1.963-4.565 48 48 0 0 0-26.71-27.35c12.374-5.248 22.187-15.018 26.71-27.392.64-1.28 1.28-2.602 1.963-4.565 5.205-12.373 5.845-26.07.64-38.443 12.373 5.206 26.069 5.206 38.485-.682l4.565-1.963c12.374-4.565 22.144-14.336 27.35-26.71 5.205 12.374 15.018 22.187 27.392 26.71l4.565 1.963c12.373 5.205 26.07 5.888 38.443.682-5.206 12.374-5.206 26.027.682 38.4.64 1.323 1.28 2.646 1.92 4.608 4.566 12.374 14.336 22.187 26.752 27.392-12.373 4.523-22.186 14.934-26.752 27.35z"/></svg>