<svg class="icon" viewBox="0 0 1228 1024" xmlns="http://www.w3.org/2000/svg" width="239.844" height="200"><path d="M1177.6 51.2c0-28.16-23.04-51.2-51.2-51.2H1024c-28.16 0-51.2 23.04-51.2 51.2v819.2h204.8V51.2zm-51.2 768H1024v-768h102.4v768zM204.8 972.8h1024v51.2h-1024zM256 563.2c0-28.16-23.04-51.2-51.2-51.2H102.4c-28.16 0-51.2 23.04-51.2 51.2v307.2H256V563.2zm-51.2 256H102.4v-256h102.4v256zM563.2 256c0-28.16-23.04-51.2-51.2-51.2H409.6c-28.16 0-51.2 23.04-51.2 51.2v614.4h204.8V256zM512 819.2H409.6V256H512v563.2zM0 972.8h102.4v51.2H0zm870.4-614.4c0-28.16-23.04-51.2-51.2-51.2H716.8c-28.16 0-51.2 23.04-51.2 51.2v512h204.8v-512zm-51.2 460.8H716.8V358.4h102.4v460.8z"/></svg>