<svg class="icon" viewBox="0 0 1024 1024" xmlns="http://www.w3.org/2000/svg" width="200" height="200"><path d="M193 397.45a84 84 0 1 0 168 0 84 84 0 1 0-168 0zm238 0a84 84 0 1 0 168 0 84 84 0 1 0-168 0zm232 0a84 84 0 1 0 168 0 84 84 0 1 0-168 0z"/><path d="M469.67 736H318.12L208 853.45V736H96V96h832v364.87h96V48a48 48 0 0 0-48-48H48A48 48 0 0 0 0 48v736a48 48 0 0 0 48 48h64v144a48.05 48.05 0 0 0 1 9.67 45.88 45.88 0 0 0 2 6.29c.32.9.48 1.86.85 2.72a46.07 46.07 0 0 0 2.83 5.22c.55 1 1 2 1.59 2.94a48.53 48.53 0 0 0 5.33 6.46c.2.2.34.45.53.64a47.85 47.85 0 0 0 33.35 14c.2 0 .39.06.59.06a47.85 47.85 0 0 0 33.93-14.06L357.89 832h111.78zm305 142c-60.22 0-109.49-49.27-109.49-109.49S714.45 659 774.67 659s109.49 49.3 109.49 109.52S834.89 878 774.67 878zm0-172.6a63.11 63.11 0 1 0 63.11 63.11 63.3 63.3 0 0 0-63.11-63.11z"/><path d="M817.55 1024H732.7a48.68 48.68 0 0 1-48.36-48.36 11.87 11.87 0 0 0-7.3-10.95c-7.3-3.65-14.6-8.21-21.9-12.77-4.56-2.74-9.12-2.74-12.77-.91-23.73 13.68-52.92 5.47-66.61-18.25l-43.8-73a48.42 48.42 0 0 1-4.56-37.41 49 49 0 0 1 22.81-29.19c3.65-2.74 6.39-7.3 6.39-11.87v-25.54a13.26 13.26 0 0 0-6.39-11.86c-23.72-13.69-31-42.89-18.25-66.61l42.89-73.91c13.68-23.72 42.88-31 66.61-18.25 3.65 1.83 9.12 1.83 12.77-.91 7.3-4.56 14.6-9.12 21.9-12.77a11.87 11.87 0 0 0 7.3-11c0-25.55 21.9-47.45 48.36-47.45h84.85c27.37 0 49.27 21.9 49.27 48.36a11.87 11.87 0 0 0 7.3 11c7.3 3.65 14.6 8.21 21.9 12.77a14.64 14.64 0 0 0 13.69.92c11-6.39 24.63-8.22 36.49-4.57a49.09 49.09 0 0 1 29.2 22.81l42.88 73.91c13.69 23.72 5.48 52.92-18.24 66.61-3.65 2.74-6.39 7.3-6.39 11.86v25.55a13.29 13.29 0 0 0 6.39 11.86 51.86 51.86 0 0 1 22.81 29.2c3.65 11.86 1.82 25.54-4.57 37.41l-42.88 72.08A49.94 49.94 0 0 1 907.88 951c-3.65-2.74-9.12-1.83-13.68.91-7.3 4.56-14.6 9.12-21.9 12.77a11.87 11.87 0 0 0-7.3 10.95c.91 26.46-21 48.36-47.45 48.36zm-160.5-122.82a46.46 46.46 0 0 1 25.2 7.56 107.61 107.61 0 0 0 16.8 9.24c15.11 7.56 25.19 23.52 25.19 40.32a11.12 11.12 0 0 0 10.92 10.91h78.11a11.12 11.12 0 0 0 10.92-10.91 44.33 44.33 0 0 1 25.19-40.3c5.88-2.52 10.92-5.88 16.8-9.24 14.28-9.24 32.75-10.08 47-1.68 5 3.36 12.6.84 15.12-4.2l39.47-68a9.92 9.92 0 0 0 .84-8.39 13.06 13.06 0 0 0-5-6.72c-15.11-8.4-23.51-24.36-22.67-42v-18.52c-.84-17.64 7.56-33.6 22.67-42 5-3.36 7.56-10.08 4.2-15.12l-37.79-68a13.06 13.06 0 0 0-6.72-5c-2.52-.84-5.88 0-8.4.84a45.16 45.16 0 0 1-47-1.68 107.61 107.61 0 0 0-16.8-9.24c-15.12-7.56-25.19-23.52-25.19-40.32-.91-6.73-5.91-11.81-11.8-11.81H736c-6.72 0-11.76 5-11.76 10.91a44.35 44.35 0 0 1-25.19 40.32c-5.88 2.52-10.92 5.88-16.8 9.24a46.64 46.64 0 0 1-47.87 1.68c-5-3.36-12.6-.84-15.12 4.2l-38.64 68c-3.36 5-.84 12.59 4.2 15.11 15.12 8.4 23.52 24.36 22.68 42v18.47c.84 17.64-7.56 33.6-22.68 42a13.06 13.06 0 0 0-5 6.72c-.84 2.52 0 5.87.84 8.39l39.48 68c3.36 5 10.08 7.56 15.12 4.2a48.94 48.94 0 0 1 21.83-5z"/></svg>